<svg width="1102" height="1384" viewBox="0 0 1102 1384" fill="none" xmlns="http://www.w3.org/2000/svg">
<path fill-rule="evenodd" clip-rule="evenodd" d="M65.3118 1.07204L0.311805 1.58704L0.0607979 689.984C-0.125202 1201.92 0.100809 1378.73 0.943809 1379.75C1.89681 1380.89 32.0798 1381.07 189.695 1380.85L377.312 1380.59L385.312 1378.28C401.259 1373.67 411.633 1367.3 418.642 1357.82C423.952 1350.64 434.277 1328.1 436.158 1319.59C437.821 1312.06 458.011 1178.06 481.359 1019.59C484.925 995.387 488.758 969.512 489.879 962.087C490.999 954.662 493.229 939.587 494.836 928.587C496.442 917.587 500.255 891.712 503.309 871.087C506.363 850.462 511.989 812.212 515.812 786.087C519.635 759.962 525.25 721.712 528.291 701.087C534.249 660.671 539.669 620.983 542.289 598.587C543.19 590.887 544.805 579.13 545.878 572.46C546.951 565.79 548.729 553.19 549.828 544.46C552.954 519.638 557.858 487.701 564.319 450.087C569.87 417.779 581.903 337.158 591.783 266.087C594.574 246.012 598.173 220.812 599.782 210.087C622.255 60.284 629.961 3.75504 628.28 1.03604C627.717 0.124035 354.872 0.30604 308.812 1.24904L292.312 1.58704L291.56 6.58704C290.713 12.225 287.85 681.239 287.923 856.616C287.961 945.847 287.699 971.241 286.72 973.39C284.559 978.132 279.304 980.587 271.312 980.587C262.279 980.587 257.719 978.029 255.256 971.58C253.768 967.684 253.698 965.801 254.672 955.87C255.44 948.031 256.087 819.449 256.792 534.587C257.35 309.087 258.042 99.387 258.331 68.587C258.736 25.415 258.565 11.213 257.584 6.58704L256.312 0.587038L193.312 0.572039C158.662 0.564039 101.062 0.789039 65.3118 1.07204ZM706.312 1.57404C683.89 7.65404 670.55 22.46 658.097 55.087C656.942 58.112 654.421 64.637 652.493 69.587C650.566 74.537 648.276 82.187 647.406 86.587C645.878 94.313 635.147 168.839 630.847 201.587C629.692 210.387 626.949 230.412 624.753 246.087C616.506 304.932 613.78 324.472 609.333 356.587C606.82 374.737 603.221 400.612 601.336 414.087C599.45 427.562 595.395 456.812 592.325 479.087C589.255 501.362 585.648 527.237 584.31 536.587C582.971 545.937 579.599 570.237 576.815 590.587C574.032 610.937 570.433 636.812 568.819 648.087C567.204 659.362 563.605 685.237 560.821 705.587C558.038 725.937 554.667 750.237 553.331 759.587C551.996 768.937 548.397 794.812 545.334 817.087C542.271 839.362 538.665 865.237 537.321 874.587C535.976 883.937 532.592 908.237 529.799 928.587C527.006 948.937 522.93 978.412 520.74 994.087C518.551 1009.76 515.439 1032.04 513.826 1043.59C512.213 1055.14 508.61 1081.24 505.82 1101.59C503.03 1121.94 499.428 1147.81 497.817 1159.09C496.205 1170.36 492.598 1196.24 489.801 1216.59C484.925 1252.06 480.133 1286.44 473.77 1331.59C470.226 1356.74 467.831 1375.76 467.82 1378.84L467.812 1381.09H585.112C662.585 1381.09 702.754 1381.43 703.42 1382.1C704.081 1382.76 725.414 1383.01 765.37 1382.85L826.312 1382.59L826.535 895.843C826.738 453.422 826.902 408.879 828.343 406.679C832.192 400.805 845.785 398.525 852.707 402.592C857.961 405.678 859.819 408.849 859.737 414.587C859.698 417.337 859.47 635.761 859.23 899.973C858.906 1256.58 859.085 1380.71 859.925 1381.72C860.856 1382.85 870.806 1383.09 915.875 1383.09C951.342 1383.09 970.912 1382.73 971.312 1382.09C971.714 1381.44 994.463 1381.09 1036.29 1381.09H1100.65L1101.38 1374.34C1102.62 1362.97 1100.89 2.89204 1099.64 1.38604C1098.01 -0.580958 713.582 -0.396963 706.312 1.57404Z" fill="black"/>
</svg>
